<!-- Generator: Adobe Illustrator 23.0.0, SVG Export Plug-In  -->
<svg version="1.1" xmlns="http://www.w3.org/2000/svg" xmlns:xlink="http://www.w3.org/1999/xlink" x="0px" y="0px"
	 width="125.733px" height="31.541px" viewBox="0 0 125.733 31.541" style="enable-background:new 0 0 125.733 31.541;"
	 xml:space="preserve">
<style type="text/css">
	.st0{fill:#00AEEF;}
	.st1{fill:#00A651;}
	.st2{font-family:'Roboto-Medium';}
	.st3{font-size:14px;}
	.st4{font-family:'RobotoCondensed-Light';}
	.st5{font-size:28px;}
</style>
<defs>
</defs>
<g>
	<path class="st0" d="M2.639,22.572h5.318v1.381h-7.41v-1.121l5.147-7.438H0.581V14h7.212v1.094L2.639,22.572z"/>
	<path class="st0" d="M13.699,23.953c-0.073-0.141-0.137-0.372-0.191-0.69c-0.529,0.551-1.176,0.827-1.941,0.827
		c-0.743,0-1.349-0.212-1.818-0.636s-0.704-0.948-0.704-1.572c0-0.789,0.293-1.394,0.878-1.815s1.423-0.632,2.512-0.632h1.019
		v-0.485c0-0.383-0.107-0.689-0.321-0.919s-0.54-0.345-0.978-0.345c-0.378,0-0.688,0.095-0.93,0.284s-0.362,0.43-0.362,0.721H9.201
		c0-0.406,0.134-0.785,0.403-1.138s0.635-0.63,1.097-0.831s0.979-0.301,1.548-0.301c0.866,0,1.556,0.218,2.071,0.653
		s0.779,1.047,0.793,1.835v3.336c0,0.666,0.093,1.196,0.28,1.593v0.116H13.699z M11.874,22.757c0.328,0,0.637-0.08,0.926-0.239
		s0.507-0.374,0.653-0.643V20.48h-0.896c-0.615,0-1.078,0.107-1.388,0.321s-0.465,0.517-0.465,0.909
		c0,0.319,0.106,0.573,0.318,0.762S11.519,22.757,11.874,22.757z"/>
	<path class="st0" d="M19.893,22.764c0.415,0,0.759-0.121,1.032-0.362s0.419-0.54,0.438-0.896h1.565
		c-0.018,0.46-0.162,0.89-0.431,1.289s-0.633,0.714-1.094,0.947s-0.957,0.349-1.49,0.349c-1.035,0-1.855-0.335-2.461-1.005
		s-0.909-1.595-0.909-2.775v-0.171c0-1.125,0.301-2.027,0.902-2.704s1.422-1.015,2.461-1.015c0.879,0,1.596,0.256,2.15,0.769
		s0.844,1.186,0.872,2.02h-1.565c-0.018-0.424-0.163-0.772-0.434-1.046s-0.616-0.41-1.036-0.41c-0.538,0-0.953,0.195-1.244,0.584
		s-0.44,0.981-0.444,1.774v0.267c0,0.802,0.145,1.4,0.434,1.794S19.346,22.764,19.893,22.764z"/>
	<path class="st0" d="M25.819,17.363c0.542-0.629,1.228-0.943,2.058-0.943c1.577,0,2.376,0.9,2.399,2.7v4.833h-1.661v-4.771
		c0-0.51-0.11-0.872-0.332-1.083s-0.546-0.318-0.974-0.318c-0.666,0-1.162,0.296-1.49,0.889v5.284h-1.661v-10.5h1.661V17.363z"/>
	<path class="st0" d="M36.374,23.953c-0.073-0.141-0.137-0.372-0.191-0.69c-0.529,0.551-1.176,0.827-1.941,0.827
		c-0.743,0-1.349-0.212-1.818-0.636s-0.704-0.948-0.704-1.572c0-0.789,0.293-1.394,0.878-1.815s1.423-0.632,2.512-0.632h1.019
		v-0.485c0-0.383-0.107-0.689-0.321-0.919s-0.54-0.345-0.978-0.345c-0.378,0-0.688,0.095-0.93,0.284s-0.362,0.43-0.362,0.721h-1.661
		c0-0.406,0.134-0.785,0.403-1.138s0.635-0.63,1.097-0.831s0.979-0.301,1.548-0.301c0.866,0,1.556,0.218,2.071,0.653
		s0.779,1.047,0.793,1.835v3.336c0,0.666,0.093,1.196,0.28,1.593v0.116H36.374z M34.549,22.757c0.328,0,0.637-0.08,0.926-0.239
		s0.507-0.374,0.653-0.643V20.48h-0.896c-0.615,0-1.078,0.107-1.388,0.321s-0.465,0.517-0.465,0.909
		c0,0.319,0.106,0.573,0.318,0.762S34.193,22.757,34.549,22.757z"/>
	<path class="st0" d="M43.401,18.074c-0.219-0.037-0.444-0.055-0.677-0.055c-0.761,0-1.274,0.292-1.538,0.875v5.059h-1.661v-7.396
		h1.586l0.041,0.827c0.401-0.643,0.957-0.964,1.668-0.964c0.237,0,0.433,0.032,0.588,0.096L43.401,18.074z"/>
	<path class="st0" d="M47.161,21.574l1.504-5.018h1.771l-2.939,8.518c-0.451,1.244-1.217,1.866-2.297,1.866
		c-0.242,0-0.508-0.041-0.8-0.124v-1.292l0.314,0.021c0.419,0,0.735-0.076,0.947-0.229c0.212-0.152,0.379-0.409,0.502-0.768
		l0.239-0.635l-2.598-7.357h1.791L47.161,21.574z"/>
	<path class="st1" d="M64.825,17.746c-0.145,2.233-0.746,3.872-1.805,4.915c-1.057,1.044-2.52,1.565-4.388,1.565
		c-1.923,0-3.441-0.727-4.553-2.181c-1.112-1.454-1.673-3.429-1.682-5.927v-4.32c0-2.506,0.567-4.471,1.702-5.893
		s2.687-2.133,4.655-2.133c1.859,0,3.3,0.533,4.32,1.6c1.021,1.066,1.605,2.703,1.75,4.908h-1.586
		c-0.145-1.805-0.572-3.094-1.277-3.869c-0.707-0.774-1.776-1.162-3.207-1.162c-1.504,0-2.675,0.561-3.514,1.682
		c-0.839,1.121-1.258,2.748-1.258,4.881v4.266c0,2.115,0.405,3.76,1.217,4.936c0.811,1.176,1.955,1.764,3.432,1.764
		c1.549,0,2.67-0.387,3.363-1.162c0.693-0.774,1.107-2.064,1.244-3.869H64.825z"/>
	<path class="st1" d="M70.293,22.504h8.203v1.449h-9.775V4.047h1.572V22.504z"/>
	<path class="st1" d="M91.02,18.389h-7.465l-1.695,5.564h-1.627l6.344-19.906h1.449l6.344,19.906h-1.627L91.02,18.389z
		 M84.006,16.926h6.563L87.288,6.248L84.006,16.926z"/>
	<path class="st1" d="M103.516,15.668h-4.648v8.285h-1.572V4.047h5.455c1.813,0,3.22,0.518,4.218,1.552
		c0.998,1.035,1.497,2.473,1.497,4.313c0,1.285-0.31,2.413-0.93,3.384s-1.454,1.643-2.502,2.017l4.143,8.463v0.178h-1.668
		L103.516,15.668z M98.868,14.219h4.156c1.176,0,2.114-0.403,2.816-1.21s1.053-1.839,1.053-3.097c0-1.395-0.364-2.475-1.094-3.24
		s-1.75-1.148-3.063-1.148h-3.869V14.219z"/>
	<path class="st1" d="M116.586,14.137l-2.311,2.68v7.137h-1.559V4.047h1.559v10.609l2.188-2.734l6.166-7.875h1.955l-6.945,8.859
		l7.479,11.047h-1.9L116.586,14.137z"/>
</g>
</svg>